<?xml version="1.0" encoding="UTF-8"?><svg id="b" xmlns="http://www.w3.org/2000/svg" xmlns:xlink="http://www.w3.org/1999/xlink" viewBox="0 0 187.5 187.5"><defs><linearGradient id="f" x1="-128.97" y1="85.65" x2="-128.97" y2="140.17" gradientTransform="translate(452.8 413.48) scale(2.78 -2.78)" gradientUnits="userSpaceOnUse"><stop offset="0" stop-color="#037aff"/><stop offset="1" stop-color="#53d3ff"/></linearGradient></defs><g id="c"><g id="d"><g id="e"><rect id="g" width="187.5" height="187.5" rx="41.29" ry="41.29" fill="url(#f)"/><path d="M68.28,97.19v5.92c0,2.42,1.24,3.6,3.55,3.6h43.83c2.29,0,3.55-1.17,3.55-3.6v-5.92h-50.93ZM110.74,105.02c-1.68.03-3.14-1.45-3.14-3.15s1.46-3.18,3.14-3.18,3.13,1.45,3.13,3.18-1.43,3.11-3.13,3.15Z" fill="rgba(255,255,255,.85)"/><path d="M119.22,92.48v-9.52h-50.93v9.52h50.93ZM110.74,84.51c1.7,0,3.13,1.45,3.13,3.18s-1.43,3.11-3.13,3.15c-1.68.03-3.14-1.45-3.14-3.15s1.46-3.18,3.14-3.18Z" fill="rgba(255,255,255,.85)"/><path d="M119.22,78.26v-5.95c0-2.42-1.26-3.61-3.55-3.61h-43.83c-2.31,0-3.55,1.18-3.55,3.61v5.95h50.93ZM110.74,70.31c1.7,0,3.13,1.45,3.13,3.18s-1.43,3.11-3.13,3.16c-1.68.03-3.14-1.45-3.14-3.16s1.46-3.18,3.14-3.18Z" fill="rgba(255,255,255,.85)"/><path d="M92.74,36.71c-34.47,0-62.05,22.21-62.05,49.74,0,17.51,10.78,32.88,28.34,42.29.82.44,1.09,1.26.66,2.08-3.06,5.03-8.54,11.05-10.61,13.79-2.13,2.74-.93,6.18,3.28,6.18,6.57,0,22.93-7.17,32.23-13.84.93-.66,1.7-.93,2.46-.93.71.05,1.42.11,2.13.11,39.45,0,65.6-22.43,65.6-49.68s-27.58-49.74-62.05-49.74ZM125.09,103.73c0,5.78-3.09,8.85-8.94,8.85h-44.81c-5.83,0-8.94-3.07-8.94-8.85v-32.04c0-5.79,3.1-8.86,8.94-8.86h44.81c5.85,0,8.94,3.08,8.94,8.86v32.04Z" fill="rgba(255,255,255,.85)"/></g></g></g></svg>